<svg width="8" height="12" viewBox="0 0 8 12" fill="none" xmlns="http://www.w3.org/2000/svg">
<path d="M1.1163 0.000206632C0.955803 -0.00369422 0.798197 0.0477192 0.665389 0.147378C0.532582 0.247037 0.431173 0.390016 0.375261 0.556308C0.319349 0.722601 0.311713 0.903987 0.353414 1.0753C0.395115 1.24661 0.48408 1.39923 0.607943 1.51209L5.33398 5.9862L0.607943 10.4587C0.522261 10.5283 0.450505 10.6167 0.397168 10.7183C0.34383 10.82 0.310061 10.9327 0.297975 11.0495C0.285888 11.1662 0.295745 11.2845 0.326927 11.3968C0.35811 11.5091 0.409946 11.6132 0.479191 11.7024C0.548435 11.7915 0.633596 11.8639 0.72934 11.915C0.825083 11.9661 0.929348 11.9948 1.0356 11.9994C1.14186 12.0039 1.24782 11.9842 1.34684 11.9414C1.44586 11.8986 1.53582 11.8336 1.61108 11.7506L7.02196 6.63464C7.10693 6.55451 7.17517 6.45505 7.22195 6.34296C7.26874 6.23086 7.29297 6.10886 7.29297 5.98541C7.29297 5.86197 7.26874 5.73996 7.22195 5.62787C7.17517 5.51578 7.10693 5.41622 7.02196 5.33609L1.61108 0.215205C1.47439 0.0810394 1.29907 0.00495992 1.1163 0.000206632Z" fill="#9B9C9F"/>
</svg>
