<svg width="52" height="52" viewBox="0 0 52 52" fill="none" xmlns="http://www.w3.org/2000/svg">
<g clip-path="url(#clip0_77_2003)">
<path d="M38.8657 22.2857V7.42859L25.999 0L13.1324 7.42859V22.2857V22.2858L0.265625 29.7142V44.5714L13.1324 52L25.999 44.5714L38.8657 52L51.7324 44.5714V29.7142L38.8657 22.2857Z" fill="#4B4B4B"/>
<path d="M38.8661 7.42859L25.9995 0L13.1328 7.42859L25.9995 14.8571V29.7142L38.8661 22.2857V7.42859Z" fill="#C0F205"/>
<path d="M51.7333 29.7142L38.8666 22.2856L26 29.7142L38.8666 37.1428V52L51.7334 44.5714V29.7142H51.7333Z" fill="#C0F205"/>
<path d="M38.8666 7.42871L26 14.8573V29.7144L38.8666 22.2858V7.42871Z" fill="#C0F205"/>
<path d="M25.9989 29.7142L13.1323 22.2856L0.265625 29.7142L13.1323 37.1428V52L25.9989 44.5714V29.7142Z" fill="#C0F205"/>
<path d="M25.9995 29.7144L13.1328 37.1429V52.0001L25.9995 44.5715V29.7144Z" fill="#C0F205"/>
<path d="M51.7338 29.7144L38.8672 37.1429V52.0001L51.7339 44.5715V29.7144H51.7338Z" fill="#C0F205"/>
</g>
<defs>
<clipPath id="clip0_77_2003">
<rect width="52" height="52" fill="white"/>
</clipPath>
</defs>
</svg>
