<svg width="15" height="14" viewBox="0 0 15 14" fill="none" xmlns="http://www.w3.org/2000/svg">
<path d="M13.7436 6.08932C13.7433 6.089 13.743 6.08868 13.7427 6.08836L8.03178 0.377686C7.78836 0.134155 7.46472 0 7.12047 0C6.77621 0 6.45257 0.134048 6.20904 0.377579L0.501144 6.08537C0.499221 6.0873 0.497298 6.08932 0.495376 6.09125C-0.00450222 6.59401 -0.00364773 7.40973 0.497832 7.91121C0.726943 8.14043 1.02954 8.27319 1.35307 8.28708C1.36621 8.28836 1.37945 8.289 1.39281 8.289H1.62042V12.4917C1.62042 13.3233 2.29707 14 3.12892 14H5.3632C5.58964 14 5.77336 13.8164 5.77336 13.5898V10.2949C5.77336 9.91542 6.08205 9.60674 6.46155 9.60674H7.77939C8.15889 9.60674 8.46757 9.91542 8.46757 10.2949V13.5898C8.46757 13.8164 8.65118 14 8.87773 14H11.112C11.9439 14 12.6205 13.3233 12.6205 12.4917V8.289H12.8316C13.1757 8.289 13.4994 8.15495 13.743 7.91142C14.245 7.40909 14.2452 6.59198 13.7436 6.08932Z" fill="#B1B2B8"/>
</svg>
