<svg width="46" height="51" viewBox="0 0 46 51" fill="none" xmlns="http://www.w3.org/2000/svg">
<path d="M23.001 50.9999L0.484375 37.9999L23.001 20.0542L27.43 37.0393L23.001 50.9999Z" fill="#C0F205"/>
<path d="M45.5166 37.9999L23 50.9999V20.0542L45.5166 37.9999Z" fill="#C0F205"/>
<path d="M0.484375 38V12L23.001 -1L27.8707 11.4803L23.001 25L0.484375 38Z" fill="#C0F205"/>
<path d="M23 25V-1L45.5166 12V38L23 25Z" fill="#C0F205"/>
<path d="M23.0015 11.1284L10.9883 18.0642L23.0015 27.6387L25.3646 18.5767L23.0015 11.1284Z" fill="#909090"/>
<path d="M35.0132 18.0642L23 11.1284V27.6387L35.0132 18.0642Z" fill="#454545"/>
<path d="M10.9883 18.0645V31.9361L23.0015 38.8719L25.5996 32.2133L23.0015 25.0003L10.9883 18.0645Z" fill="#454545"/>
<path d="M23 25.0003V38.8719L35.0132 31.9361V18.0645L23 25.0003Z" fill="#767676"/>
</svg>
